<?xml version="1.0" encoding="UTF-8" standalone="no"?>
<!DOCTYPE svg PUBLIC "-//W3C//DTD SVG 1.1//EN" "http://www.w3.org/Graphics/SVG/1.1/DTD/svg11.dtd">
<svg xmlns="http://www.w3.org/2000/svg" version="1.1" viewBox="0.00 0.00 1024.00 683.00">
<path stroke="#30639b" stroke-opacity="0.996" stroke-width="2.00" fill="none" stroke-linecap="butt" vector-effect="non-scaling-stroke" d="
  M 650.46 360.75
  L 648.56 360.83"
/>
<ellipse fill="#5a9ed9" fill-opacity="0.992" cx="0.00" cy="0.00" transform="translate(760.66,244.05) rotate(-170.5)" rx="4.69" ry="4.37"/>
<circle fill="#5a9ed9" fill-opacity="0.992" cx="751.10" cy="262.24" r="4.84"/>
<circle fill="#5a9ed9" fill-opacity="0.992" cx="737.14" cy="281.92" r="6.50"/>
<ellipse fill="#5a9ed9" fill-opacity="0.992" cx="0.00" cy="0.00" transform="translate(756.94,281.36) rotate(-166.1)" rx="5.10" ry="4.83"/>
<path fill="#ffffff" fill-opacity="0.996" d="
  M 377.57 319.20
  A 0.55 0.52 -47.6 0 0 378.42 319.13
  Q 386.49 307.63 400.87 309.53
  C 411.33 310.91 414.86 319.18 414.77 328.90
  Q 414.66 341.34 414.80 353.02
  C 414.82 356.46 416.41 358.65 419.58 359.59
  Q 420.83 359.96 421.91 360.41
  A 1.31 1.31 0.0 0 1 421.41 362.92
  L 396.18 362.92
  A 1.30 1.30 0.0 0 1 395.78 360.39
  L 399.46 359.20
  A 2.15 2.04 13.7 0 0 400.25 358.75
  Q 402.73 356.48 402.72 352.03
  Q 402.71 346.34 402.71 330.48
  C 402.71 322.68 400.50 316.59 391.56 316.82
  Q 382.64 317.04 378.96 324.70
  Q 377.40 327.95 377.42 334.54
  Q 377.45 348.43 377.51 353.28
  C 377.56 356.27 379.43 358.84 382.40 359.67
  Q 384.03 360.12 384.59 360.31
  A 1.34 1.34 0.0 0 1 384.16 362.92
  Q 364.39 362.90 358.80 362.94
  Q 357.69 362.95 357.47 362.49
  A 1.60 1.57 -18.8 0 1 358.59 360.25
  C 362.10 359.50 365.29 358.27 365.28 353.78
  Q 365.22 305.15 365.33 294.42
  C 365.39 287.69 363.43 287.39 357.56 286.60
  A 0.95 0.94 -85.0 0 1 356.73 285.62
  Q 356.80 284.19 358.43 283.79
  Q 360.28 283.33 372.52 279.39
  Q 374.69 278.70 376.90 278.67
  A 0.58 0.58 0.0 0 1 377.49 279.25
  C 377.47 298.27 377.18 318.73 377.57 319.20
  Z"
/>
<path fill="#ffffff" fill-opacity="0.996" d="
  M 507.26 319.24
  A 0.55 0.51 -47.6 0 0 508.11 319.17
  Q 516.16 307.69 530.52 309.59
  C 540.96 310.97 544.48 319.22 544.39 328.92
  Q 544.28 341.34 544.42 353.00
  C 544.45 356.43 546.03 358.61 549.20 359.55
  Q 550.44 359.92 551.52 360.37
  A 1.31 1.30 -33.8 0 1 551.02 362.88
  L 525.84 362.88
  A 1.30 1.30 0.0 0 1 525.44 360.35
  L 529.11 359.17
  A 2.15 2.03 13.7 0 0 529.90 358.72
  Q 532.38 356.45 532.37 352.01
  Q 532.36 346.33 532.35 330.50
  C 532.35 322.71 530.15 316.64 521.22 316.87
  Q 512.32 317.09 508.65 324.73
  Q 507.09 327.98 507.11 334.55
  Q 507.14 348.42 507.21 353.26
  C 507.26 356.24 509.12 358.81 512.09 359.64
  Q 513.71 360.09 514.27 360.28
  A 1.34 1.33 54.4 0 1 513.84 362.88
  Q 494.11 362.86 488.53 362.90
  Q 487.42 362.91 487.20 362.45
  A 1.60 1.57 -18.8 0 1 488.32 360.22
  C 491.83 359.47 495.01 358.24 495.00 353.76
  Q 494.93 305.22 495.04 294.51
  C 495.10 287.79 493.14 287.50 487.28 286.71
  A 0.94 0.94 0.0 0 1 486.46 285.73
  Q 486.53 284.30 488.15 283.90
  Q 490.00 283.44 502.22 279.51
  Q 504.38 278.82 506.59 278.79
  A 0.58 0.58 0.0 0 1 507.18 279.37
  C 507.16 298.35 506.87 318.77 507.26 319.24
  Z"
/>
<path fill="#ffffff" fill-opacity="0.996" d="
  M 351.24 309.34
  Q 348.74 309.54 347.91 309.35
  A 0.90 0.90 0.0 0 1 347.25 308.69
  C 344.96 298.84 342.37 291.05 331.91 287.66
  Q 321.70 284.35 311.63 287.66
  Q 298.51 291.97 293.52 305.01
  Q 291.71 309.71 291.24 313.26
  Q 289.96 322.73 291.38 331.43
  Q 292.02 335.29 294.80 341.21
  C 298.03 348.09 304.25 353.63 311.53 356.10
  Q 326.23 361.09 339.58 353.30
  Q 343.95 350.74 349.74 343.83
  A 2.13 2.12 -52.5 0 1 352.58 343.45
  L 353.96 344.40
  A 1.83 1.82 34.5 0 1 354.43 346.91
  Q 351.16 351.78 347.71 354.71
  C 341.69 359.82 333.88 363.24 325.80 363.91
  C 316.71 364.67 307.58 363.98 298.96 360.54
  C 284.94 354.95 276.59 343.11 275.11 328.10
  C 273.76 314.36 278.48 299.92 288.94 291.07
  Q 297.40 283.92 307.46 281.97
  C 316.19 280.28 327.87 279.97 337.08 283.07
  Q 338.99 283.71 343.76 285.20
  A 1.45 1.44 42.0 0 0 344.76 285.15
  C 346.97 284.22 348.39 282.69 351.02 283.87
  A 1.10 1.09 12.1 0 1 351.67 284.87
  L 351.67 308.88
  A 0.47 0.46 -2.7 0 1 351.24 309.34
  Z"
/>
<circle fill="#5a9ed9" fill-opacity="0.992" cx="723.31" cy="301.69" r="7.81"/>
<circle fill="#5a9ed9" fill-opacity="0.992" cx="745.83" cy="302.10" r="6.94"/>
<path fill="#ffffff" fill-opacity="0.996" d="
  M 484.2599 338.6584
  A 24.84 24.84 0.0 0 1 459.7691 363.8428
  L 451.9499 363.9519
  A 24.84 24.84 0.0 0 1 426.7655 339.4612
  L 426.7001 334.7816
  A 24.84 24.84 0.0 0 1 451.1909 309.5972
  L 459.0101 309.4881
  A 24.84 24.84 0.0 0 1 484.1945 333.9788
  L 484.2599 338.6584
  Z
  M 439.52 337.16
  C 439.72 347.36 443.29 359.90 456.07 359.65
  C 468.84 359.40 471.93 346.73 471.73 336.53
  C 471.53 326.33 467.96 313.79 455.18 314.04
  C 442.41 314.28 439.33 326.95 439.52 337.16
  Z"
/>
<path fill="#ffffff" fill-opacity="0.996" d="
  M 587.13 356.99
  C 584.00 360.78 579.86 363.33 575.18 363.84
  C 567.48 364.68 560.00 363.57 556.26 356.00
  A 4.51 4.23 28.2 0 1 555.89 354.90
  Q 554.74 348.75 558.35 343.94
  Q 560.75 340.75 566.90 338.14
  Q 572.95 335.58 576.72 334.45
  Q 586.08 331.64 587.28 331.20
  A 0.97 0.96 -4.9 0 0 587.90 330.47
  Q 588.28 328.33 587.87 323.82
  Q 587.11 315.43 579.98 314.44
  C 577.31 314.06 574.99 314.91 572.35 315.60
  C 569.49 316.35 570.57 322.92 568.74 325.20
  Q 565.95 328.66 562.00 326.95
  A 2.95 2.89 -10.5 0 1 561.02 326.29
  C 557.25 322.48 558.21 317.70 562.23 314.69
  Q 565.25 312.43 566.22 312.09
  Q 570.45 310.65 571.30 310.24
  A 3.21 3.02 26.2 0 1 572.28 309.94
  Q 581.90 308.67 587.54 310.03
  Q 599.87 313.01 599.89 326.31
  Q 599.93 348.86 599.96 353.48
  Q 599.97 354.91 601.43 357.18
  A 1.27 1.25 75.7 0 0 602.39 357.76
  Q 604.78 357.96 605.95 357.28
  A 0.76 0.76 0.0 0 1 607.08 357.84
  C 607.70 362.92 598.70 363.92 595.00 363.59
  Q 589.72 363.11 587.94 357.16
  A 0.47 0.47 0.0 0 0 587.13 356.99
  Z
  M 587.62 335.72
  Q 580.60 337.85 574.93 340.38
  Q 568.16 343.40 568.40 349.69
  C 568.60 354.92 572.32 358.46 577.77 357.49
  Q 585.05 356.20 587.35 349.89
  C 588.63 346.40 588.03 341.13 588.10 336.08
  A 0.37 0.37 0.0 0 0 587.62 335.72
  Z"
/>
<path fill="#ffffff" fill-opacity="0.996" d="
  M 630.74 319.19
  A 0.43 0.43 0.0 0 0 631.52 319.43
  Q 640.09 306.71 655.63 309.94
  Q 656.51 310.12 660.55 312.18
  A 4.16 4.03 -6.6 0 1 661.75 313.10
  Q 666.78 318.65 667.01 324.84
  Q 667.27 331.72 667.15 342.50
  Q 667.10 347.82 671.73 349.08
  A 0.71 0.71 0.0 0 1 672.25 349.80
  Q 672.17 351.29 670.75 352.17
  Q 665.40 355.48 659.53 353.55
  C 656.04 352.40 654.68 348.42 654.73 344.66
  Q 654.74 343.95 654.76 329.14
  C 654.76 326.22 654.17 322.33 652.47 320.07
  C 649.59 316.24 643.65 316.41 639.52 317.58
  A 4.31 4.13 -67.3 0 0 638.53 318.01
  Q 634.10 320.66 631.79 325.72
  Q 630.48 328.61 630.64 335.95
  Q 630.75 340.52 630.65 353.01
  Q 630.62 356.91 633.90 359.11
  A 0.38 0.32 68.4 0 0 634.03 359.18
  L 637.34 360.38
  A 1.30 1.30 0.0 0 1 636.90 362.90
  L 611.85 362.90
  A 1.30 1.30 0.0 0 1 611.52 360.35
  L 615.22 359.36
  A 1.80 1.74 -72.6 0 0 615.95 358.96
  Q 618.72 356.41 618.73 354.65
  Q 618.89 329.73 618.70 320.78
  Q 618.67 319.42 617.40 317.85
  A 1.33 1.32 79.0 0 0 616.74 317.40
  L 611.16 315.71
  A 0.81 0.80 44.7 0 1 611.15 314.17
  Q 617.14 312.32 625.69 309.98
  Q 627.95 309.37 629.95 309.40
  A 0.81 0.81 0.0 0 1 630.74 310.21
  L 630.74 319.19
  Z"
/>
<ellipse fill="#5a9ed9" fill-opacity="0.992" cx="0.00" cy="0.00" transform="translate(706.27,321.85) rotate(-171.7)" rx="8.33" ry="8.06"/>
<ellipse fill="#5a9ed9" fill-opacity="0.992" cx="0.00" cy="0.00" transform="translate(729.28,325.22) rotate(-2.0)" rx="7.86" ry="7.66"/>
<circle fill="#5a9ed9" fill-opacity="0.992" cx="689.04" cy="336.46" r="6.32"/>
<ellipse fill="#5a9ed9" fill-opacity="0.992" cx="0.00" cy="0.00" transform="translate(709.53,344.08) rotate(-175.3)" rx="7.23" ry="6.85"/>
<circle fill="#5a9ed9" fill-opacity="0.992" cx="676.39" cy="341.60" r="4.00"/>
<ellipse fill="#5a9ed9" fill-opacity="0.992" cx="0.00" cy="0.00" transform="translate(688.34,355.99) rotate(-169.9)" rx="5.17" ry="4.88"/>
<path fill="#5a9ed9" fill-opacity="0.992" d="
  M 650.46 360.75
  L 648.56 360.83
  A 3.99 3.77 22.9 0 1 645.38 355.90
  A 3.99 3.79 26.4 0 1 647.72 353.50
  A 4.00 3.78 23.0 0 1 652.92 355.99
  A 3.99 3.77 25.2 0 1 650.46 360.75
  Z"
/>
<path fill="#ffffff" fill-opacity="0.996" d="
  M 650.46 360.75
  A 3.95 3.74 23.4 0 1 648.56 360.83
  L 650.46 360.75
  Z"
/>
</svg>
